<svg width="124" height="108" viewBox="0 0 124 108" fill="none" xmlns="http://www.w3.org/2000/svg">
<path d="M96.6573 22.298C90.173 19.334 83.3307 17.2185 76.3011 16.0043C76.2374 15.9936 76.1719 16.0029 76.1137 16.0307C76.0555 16.0586 76.0074 16.1037 75.9761 16.16C75.0948 17.7162 74.1198 19.7519 73.4386 21.3455C65.8611 20.2001 58.1535 20.2001 50.5761 21.3455C49.8161 19.5702 48.9564 17.839 48.0011 16.16C47.969 16.1044 47.9208 16.0597 47.8628 16.032C47.8048 16.0042 47.7397 15.9945 47.6761 16.0043C40.6448 17.212 33.8011 19.3286 27.3198 22.298C27.2643 22.3191 27.218 22.3587 27.1886 22.41C14.2261 41.7019 10.6698 60.5206 12.4136 79.1027C12.4198 79.1899 12.4761 79.277 12.5448 79.3331C20.0931 84.9022 28.536 89.1543 37.5136 91.9079C37.5769 91.9278 37.6451 91.9271 37.708 91.9058C37.7709 91.8846 37.8254 91.8439 37.8636 91.7896C39.7886 89.1751 41.5011 86.4173 42.9761 83.5164C43.0068 83.4566 43.0173 83.3886 43.0061 83.3224C42.9948 83.2562 42.9623 83.1954 42.9136 83.1491C42.8813 83.1187 42.8429 83.0954 42.8011 83.0806C40.1083 82.0498 37.5004 80.8114 35.0011 79.3766C34.9312 79.3372 34.8793 79.2726 34.8561 79.1961C34.8328 79.1196 34.8399 79.0371 34.8761 78.9658C34.8973 78.9194 34.9295 78.8789 34.9698 78.8475C35.4948 78.4553 36.0198 78.0444 36.5198 77.6336C36.564 77.5982 36.617 77.5755 36.6731 77.5678C36.7293 77.5601 36.7865 77.5678 36.8386 77.59C53.2073 85.0353 70.9261 85.0353 87.0948 77.59C87.1488 77.5667 87.2081 77.5585 87.2665 77.5661C87.3248 77.5738 87.38 77.5971 87.4261 77.6336C87.9261 78.0444 88.451 78.4553 88.9761 78.8475C89.0186 78.8785 89.0528 78.9194 89.0755 78.9668C89.0983 79.0141 89.1089 79.0663 89.1064 79.1188C89.1039 79.1712 89.0884 79.2222 89.0613 79.2672C89.0342 79.3122 88.9963 79.3498 88.9511 79.3766C86.4574 80.8246 83.8462 82.0615 81.1448 83.0744C81.1017 83.0899 81.0626 83.1147 81.0302 83.147C80.9978 83.1793 80.9729 83.2182 80.9573 83.2611C80.9428 83.3027 80.9371 83.3468 80.9403 83.3907C80.9435 83.4346 80.9557 83.4773 80.9761 83.5164C82.4761 86.4111 84.1948 89.1751 86.0823 91.7896C86.1204 91.8439 86.1749 91.8846 86.2379 91.9058C86.3008 91.9271 86.3689 91.9278 86.4323 91.9079C95.4249 89.1628 103.882 84.9102 111.439 79.3331C111.476 79.307 111.508 79.2727 111.531 79.2328C111.553 79.1929 111.567 79.1485 111.57 79.1027C113.657 57.6196 108.076 38.9566 96.7823 22.4163C96.7709 22.3889 96.7539 22.3643 96.7324 22.3439C96.7109 22.3236 96.6853 22.3079 96.6573 22.298ZM45.4198 67.7853C40.4886 67.7853 36.4323 63.2783 36.4323 57.7504C36.4323 52.2162 40.4136 47.7092 45.4198 47.7092C50.4636 47.7092 54.4823 52.2535 54.4073 57.7504C54.4073 63.2783 50.4261 67.7853 45.4198 67.7853ZM78.6448 67.7853C73.7198 67.7853 69.6573 63.2783 69.6573 57.7504C69.6573 52.2162 73.6386 47.7092 78.6448 47.7092C83.6886 47.7092 87.7136 52.2535 87.6323 57.7504C87.6323 63.2783 83.6886 67.7853 78.6448 67.7853Z" fill="white"/>
</svg>
