<svg xmlns="http://www.w3.org/2000/svg" viewBox="0 0 1156.37 278.68"><defs><style>.cls-1{fill:#f47920;}.cls-2{fill:#fff;}</style></defs><g id="Layer_2" data-name="Layer 2"><g id="Layer_4" data-name="Layer 4"><path class="cls-1" d="M3.45,44.21c1.83,0,4,.1,6.62.32,13.63,1.12,13.32,4,26.87,5.81s13.85-.48,27.39,1.29,13.24,4,26.78,5.81a77.42,77.42,0,0,0,13.8.75,2.21,2.21,0,0,0,2.1-1.73c.46-2.08,1-4.15,1.6-6.22a2.21,2.21,0,0,0-2-2.85,66.92,66.92,0,0,1-13-2.11c-13.42-3.36-12.86-5.57-26.28-8.94s-14-1.16-27.37-4.53-12.84-5.57-26.24-8.93c-2.77-.7-5-1.19-6.86-1.55a2.22,2.22,0,0,0-2.59,1.72q-2,9.36-3.1,18.69A2.24,2.24,0,0,0,3.45,44.21Z"/><path class="cls-1" d="M9.64,75.18C22.86,74.08,23,77,36.3,76.55s13.17-2.73,26.43-3.18,13.32,1.82,26.56,1.37a74,74,0,0,0,13.77-1.58,2.22,2.22,0,0,0,1.78-2q.22-3.12.64-6.24a2.21,2.21,0,0,0-2.39-2.53,63.63,63.63,0,0,1-13.15.12C76.56,61.39,76.75,59.12,63.36,58s-13.56,1.17-26.93.08S23.25,54.74,9.89,53.65c-3.09-.25-5.47-.37-7.46-.4A2.23,2.23,0,0,0,.17,55.39q-.39,9.33.12,18.54A2.22,2.22,0,0,0,2.87,76C4.71,75.69,6.89,75.41,9.64,75.18Z"/><path class="cls-1" d="M39.89,102.13c12.62-2.51,12.18-4.75,24.8-7.26s13-.28,25.66-2.8a69.5,69.5,0,0,0,13.1-3.77,2.21,2.21,0,0,0,1.42-2.25q-.24-3.12-.29-6.27a2.22,2.22,0,0,0-2.79-2.14A61,61,0,0,1,88.92,80c-13,1.08-13.17-1.19-26.16-.11S50,83.19,37,84.27s-13.16-1.19-26.12-.12c-3.16.27-5.54.55-7.51.86a2.24,2.24,0,0,0-1.86,2.48q1.14,9,3.12,17.79a2.22,2.22,0,0,0,2.9,1.61c1.76-.61,3.87-1.26,6.6-2C26.62,101.8,27.26,104.65,39.89,102.13Z"/><path class="cls-1" d="M47.28,126.5c11.7-4.36,10.9-6.5,22.6-10.86s12.49-2.22,24.17-6.57a66.25,66.25,0,0,0,12.06-5.73,2.2,2.2,0,0,0,1-2.41q-.7-3.09-1.22-6.21A2.21,2.21,0,0,0,102.81,93a57.81,57.81,0,0,1-12.1,4.34c-12.26,3.07-12.81.86-25.07,3.93s-11.7,5.28-24,8.35-12.79.85-25,3.92c-3.05.76-5.31,1.43-7.17,2a2.23,2.23,0,0,0-1.42,2.74q2.5,8.41,5.73,16.56a2.23,2.23,0,0,0,3.12,1.13c1.61-.88,3.56-1.85,6.11-2.95C34.48,128.15,35.57,130.86,47.28,126.5Z"/><path class="cls-1" d="M58.43,149C69,143,67.85,141,78.4,135.09s11.65-4,22.19-9.9A61.33,61.33,0,0,0,111.05,118a2.23,2.23,0,0,0,.64-2.53c-.79-2-1.5-4-2.16-6a2.21,2.21,0,0,0-3.35-1.18,53.73,53.73,0,0,1-10.67,5.9c-11.27,4.83-12.16,2.74-23.43,7.57s-10.36,6.92-21.63,11.74-12.14,2.73-23.4,7.55c-3,1.28-5.11,2.31-6.85,3.24a2.25,2.25,0,0,0-1,3c2.47,5.1,5.18,10.08,8.08,14.95a2.23,2.23,0,0,0,3.27.61c1.44-1.13,3.2-2.39,5.57-3.9C46.38,152.44,47.87,154.93,58.43,149Z"/><path class="cls-1" d="M89.69,152.83c9.2-7.27,10.61-5.49,19.82-12.76a57,57,0,0,0,8.72-8.25,2.2,2.2,0,0,0,.24-2.59c-1.08-1.83-2.11-3.68-3.08-5.57a2.2,2.2,0,0,0-3.5-.63,50.1,50.1,0,0,1-9.12,7.12c-10.06,6.33-11.27,4.41-21.33,10.74s-8.84,8.25-18.89,14.58-11.26,4.4-21.31,10.72c-2.72,1.72-4.64,3.06-6.19,4.24a2.25,2.25,0,0,0-.48,3q4.71,6.78,10,13.14a2.23,2.23,0,0,0,3.34.09A63.6,63.6,0,0,1,52.78,182c8.82-7.76,10.67-5.54,19.89-12.82S80.47,160.11,89.69,152.83Z"/><path class="cls-1" d="M89.51,186.81c7.74-8.34,6.07-9.9,13.82-18.24s9.4-6.78,17.14-15.11a53.53,53.53,0,0,0,7-9.08,2.21,2.21,0,0,0-.18-2.59q-2-2.43-3.87-5a2.21,2.21,0,0,0-3.56-.07,47.48,47.48,0,0,1-7.46,8c-8.69,7.57-10.19,5.86-18.88,13.43S86.36,167.43,77.68,175s-10.17,5.84-18.84,13.41c-2.42,2.11-4.08,3.71-5.4,5.11a2.24,2.24,0,0,0,0,3.07Q59,202.4,65,207.74a2.22,2.22,0,0,0,3.32-.43,58.72,58.72,0,0,1,4-5.31C79.59,193.24,81.76,195.15,89.51,186.81Z"/><path class="cls-1" d="M108.72,201.24c6.19-9.13,4.3-10.41,10.49-19.54s8.07-7.85,14.25-17a52.94,52.94,0,0,0,5.24-9.34,2.12,2.12,0,0,0-.56-2.46q-2.55-2.24-4.92-4.62a2.15,2.15,0,0,0-2.9-.16,54.58,54.58,0,0,0-7.83,7.84c-7.19,8.55-5.45,10-12.64,18.56s-8.93,7.07-16.12,15.61-5.43,10-12.62,18.53a38,38,0,0,1-4.89,4.94,2.18,2.18,0,0,0,.07,3.4Q82,221.35,88,225.25a2.16,2.16,0,0,0,3.14-.9,58.54,58.54,0,0,1,3.31-6.07C100.2,208.87,102.53,210.38,108.72,201.24Z"/><path class="cls-1" d="M136.58,192.41c4.59-9.64,6.64-8.66,11.23-18.3a47.09,47.09,0,0,0,3.36-8.89,3.22,3.22,0,0,0-1.36-3.56c-1.19-.76-2.35-1.54-3.5-2.34a3.25,3.25,0,0,0-4.9,1.52,42,42,0,0,1-3.74,7.55c-5.63,9.24-7.58,8.06-13.2,17.3s-3.67,10.42-9.29,19.66-7.57,8-13.18,17.27c-1.41,2.31-2.37,4.09-3.11,5.61a3.28,3.28,0,0,0,1.35,4.33q5.64,3.09,11.52,5.82a3.31,3.31,0,0,0,4.55-2.06c.43-1.46,1-3.15,1.86-5.25,4-9.9,6.68-8.73,11.28-18.39S132,202.05,136.58,192.41Z"/><path class="cls-1" d="M155.29,200c3-9.89,5.19-9.23,8.22-19.11a63.29,63.29,0,0,0,2-9.23A2.55,2.55,0,0,0,164,169c-1.78-.77-4.47-1.94-5.9-2.66a2.2,2.2,0,0,0-2.84.74,47.41,47.41,0,0,0-4.64,8.85c-4,9.66-1.93,10.54-6,20.21s-6.14,8.78-10.18,18.45-1.93,10.53-6,20.18a43.66,43.66,0,0,1-2.34,4.84,3.8,3.8,0,0,0,2,5.46q4.53,1.6,9.18,3a3.79,3.79,0,0,0,4.85-3.17,50.65,50.65,0,0,1,.95-5.19c2.35-10.08,5.22-9.31,8.25-19.21S152.26,209.93,155.29,200Z"/><path class="cls-1" d="M177.55,173.31q-2.51-.54-5-1.28a2.21,2.21,0,0,0-2.63,1.15,43.57,43.57,0,0,0-3.39,9.45c-2.5,9.83-.29,10.39-2.79,20.23s-4.7,9.26-7.19,19.09-.29,10.38-2.78,20.2a37.1,37.1,0,0,1-2.35,6.8,2.22,2.22,0,0,0,1.58,3.1q7,1.41,13.93,2.15a2.22,2.22,0,0,0,2.45-2.35,48,48,0,0,1,.06-7.15c.75-10,3.51-9.73,4.75-19.67s-1-10.23.21-20.17,3.5-9.65,4.73-19.59a40.1,40.1,0,0,0,.17-10A2.21,2.21,0,0,0,177.55,173.31Z"/><path class="cls-1" d="M196.2,244.81c-1.11-9.65,1.64-9.89,1-19.58s-2.89-9.53-3.51-19.21,1.65-9.82,1-19.49a38.34,38.34,0,0,0-1.87-10.14,2.2,2.2,0,0,0-2.07-1.57c-1.55,0-3.09-.14-4.64-.28a2.21,2.21,0,0,0-2.34,1.58A39.18,39.18,0,0,0,182,186.21c-.6,9.8,1.68,9.94,1.08,19.74s-2.87,9.65-3.47,19.45,1.68,9.92,1.08,19.71a35.39,35.39,0,0,1-1.08,7.11,2.22,2.22,0,0,0,2.13,2.78c4.62,0,9.2-.15,13.75-.55a2.23,2.23,0,0,0,1.95-2.79A43.63,43.63,0,0,1,196.2,244.81Z"/><path class="cls-1" d="M222,240c-3-8.9-.14-9.74-2.46-18.84s-4.53-8.53-6.85-17.63-.11-9.64-2.43-18.73a37.25,37.25,0,0,0-3.87-9.77,2.19,2.19,0,0,0-2.32-1.16c-1.43.22-2.87.41-4.32.55a2.21,2.21,0,0,0-2,2,37.44,37.44,0,0,0,0,10.37c1.21,9.42,3.47,9.13,4.67,18.56s-1.05,9.71.16,19.12,3.46,9.12,4.67,18.53a33.16,33.16,0,0,1,.24,7,2.22,2.22,0,0,0,2.62,2.35c4.41-.84,8.78-1.87,13.07-3.09a2.22,2.22,0,0,0,1.35-3.17A38.26,38.26,0,0,1,222,240Z"/><path class="cls-1" d="M246,230.74c-4.33-8-1.77-9.27-5.57-17.52s-5.86-7.3-9.66-15.54-1.73-9.19-5.52-17.43a37,37,0,0,0-5.61-8.93,2.22,2.22,0,0,0-2.51-.73c-1.41.51-2.84,1-4.29,1.4a2.22,2.22,0,0,0-1.29,3.33,31.34,31.34,0,0,1,4.06,8.46c2.82,8.75.65,9.45,3.48,18.19s5,8,7.81,16.78.66,9.43,3.48,18.17a39.28,39.28,0,0,0,2.89,7,2.23,2.23,0,0,0,2.77,1q6.44-2.49,12.61-5.57a2.23,2.23,0,0,0,.77-3.34A37.08,37.08,0,0,1,246,230.74Z"/><path class="cls-1" d="M267.38,217.59c-5.5-6.85-3.21-8.56-8.25-15.77s-6.89-5.88-11.92-13.07-3.16-8.5-8.18-15.69a36.15,36.15,0,0,0-7.19-7.75,2.19,2.19,0,0,0-2.6-.28c-1.29.74-2.59,1.46-3.92,2.12a2.24,2.24,0,0,0-.67,3.52,29.91,29.91,0,0,1,5.63,7.59c4.21,7.82,2.21,8.9,6.42,16.73s6.22,6.74,10.43,14.55,2.2,8.89,6.4,16.71a38.23,38.23,0,0,0,4,6.14,2.24,2.24,0,0,0,2.91.5c3.75-2.32,7.4-4.82,10.93-7.46a2.23,2.23,0,0,0,.17-3.42A36.21,36.21,0,0,1,267.38,217.59Z"/><path class="cls-1" d="M290.45,204.58a33.45,33.45,0,0,1-4.64-3.35c-6.46-5.51-4.47-7.68-10.48-13.68s-7.62-4.37-13.63-10.36-4.39-7.6-10.4-13.59c-3.93-3.93-5.85-4.71-8.47-6.38a2.2,2.2,0,0,0-2.6.18c-1,.83-2,1.63-3,2.4a2.2,2.2,0,0,0-.66,2.74,36.39,36.39,0,0,0,5.4,9.08c5.36,6.72,7.14,5.3,12.49,12s3.56,8.14,8.91,14.85,7.13,5.29,12.47,12a23.91,23.91,0,0,1,3.16,5,2.22,2.22,0,0,0,3.51.75q4.36-4,8.44-8.26A2.22,2.22,0,0,0,290.45,204.58Z"/><path class="cls-1" d="M305.69,184.7a32.64,32.64,0,0,1-4.88-2.44c-7-4.22-5.5-6.61-12.23-11.3s-8-2.82-14.76-7.51-5.42-6.55-12.14-11.24c-4.58-3.19-6.59-3.46-9.57-4.71a2.23,2.23,0,0,0-2.54.62c-.92,1.09-1.87,2.13-2.84,3.15a2.22,2.22,0,0,0,.58,3.54A29.59,29.59,0,0,1,255.5,160c6.24,5.48,4.73,7.2,11,12.68s7.73,3.76,14,9.24,4.72,7.18,10.94,12.66a33.15,33.15,0,0,0,5.33,3.94,2.23,2.23,0,0,0,2.87-.55q3.76-4.8,7.16-9.95A2.21,2.21,0,0,0,305.69,184.7Z"/><path class="cls-1" d="M317.12,162.9a29.94,29.94,0,0,1-5-1.47c-7.41-2.83-6.31-5.44-13.5-8.79s-8.14-1.27-15.32-4.61-6.22-5.4-13.4-8.74c-5.16-2.4-7.07-2.15-10.43-3a2.23,2.23,0,0,0-2.44,1.05c-.7,1.2-1.43,2.37-2.19,3.52a2.22,2.22,0,0,0,1.14,3.36c2.73.87,4.88,1,9.26,3.64,6.86,4.16,5.68,6.11,12.53,10.27s8,2.21,14.88,6.36,5.66,6.1,12.51,10.26a30.71,30.71,0,0,0,5.67,2.81,2.23,2.23,0,0,0,2.71-1q2.78-5.16,5.16-10.59A2.23,2.23,0,0,0,317.12,162.9Z"/><path class="cls-1" d="M319.5,139.43c-7.53-1.39-6.88-4.23-14.27-6.25s-8,.19-15.36-1.83-6.77-4.21-14.15-6.22c-5.49-1.5-7.16-.89-10.73-1.14a2.2,2.2,0,0,0-2.26,1.47c-.16.48-.33,1-.52,1.45-.31.79-.66,1.57-1,2.33a2.22,2.22,0,0,0,1.68,3.13c2.89.4,4.93,0,9.69,1.91,7.21,2.82,6.38,4.94,13.6,7.76s8,.7,15.24,3.51,6.37,4.94,13.57,7.75a26.35,26.35,0,0,0,6.09,1.71,2.24,2.24,0,0,0,2.43-1.49c1.19-3.54,2.28-7.15,3.22-10.83.41-2.16-.48-2.8-2.16-2.76A26.71,26.71,0,0,1,319.5,139.43Z"/><path class="cls-1" d="M327.57,115.55a25.79,25.79,0,0,1-4.71.46c-7.39.14-7.34-2.7-14.72-3.12s-7.5,1.85-14.88,1.43-7.23-2.7-14.6-3.12c-5.84-.33-7.14.87-11.09,1.3a2.22,2.22,0,0,0-2,1.87q-.24,1.45-.54,2.91a2.2,2.2,0,0,0,2.17,2.63c3.2,0,5-1,10.19,0,7.35,1.42,6.91,3.66,14.25,5.09s7.77-.81,15.1.61,6.89,3.67,14.22,5.09a25.6,25.6,0,0,0,6.16.58,2.23,2.23,0,0,0,2.13-1.93,114.62,114.62,0,0,0,1-11.63A2.22,2.22,0,0,0,327.57,115.55Z"/><path class="cls-1" d="M306.65,92.67c-7,1.13-6.68,3.38-13.72,4.5s-7.39-1.13-14.42,0c-5.79.92-6.65,2.37-10.64,3.66a2.25,2.25,0,0,0-1.54,2.2c0,.4,0,.8,0,1.21a2.23,2.23,0,0,0,2,2.2c3.89.52,5.18,1.83,10.91,1.68,7.21-.18,7.16-2.46,14.37-2.64s7.26,2.1,14.46,1.92,7.15-2.46,14.35-2.65a20.82,20.82,0,0,1,4.6.35,2.23,2.23,0,0,0,2.69-2.37c-.32-3.26-.79-6.5-1.39-9.7a2.22,2.22,0,0,0-3-1.62,25.67,25.67,0,0,1-4.1,1.25C314.22,94.24,313.69,91.55,306.65,92.67Z"/><path class="cls-1" d="M301,73.66c-6.41,2.48-5.59,4.6-12,7.08s-7.23.35-13.64,2.83c-5.29,2-5.74,3.78-9.31,5.77a2.24,2.24,0,0,0-1.09,2.45c.08.34.15.69.23,1a2.24,2.24,0,0,0,2.41,1.79c3.95-.35,5.38.73,10.85-.6,6.77-1.66,6.23-3.87,13-5.53s7.29.57,14-1.09,6.21-3.86,13-5.51a19,19,0,0,1,4.13-.6,2.22,2.22,0,0,0,2-2.91q-1.42-4.31-3.18-8.49a2.21,2.21,0,0,0-3.27-1,25.58,25.58,0,0,1-3.39,1.88C308.45,73.7,307.38,71.18,301,73.66Z"/><path class="cls-1" d="M281.77,65.66c-5.56,3.6-6.8,1.69-12.37,5.29-4.57,3-4.66,4.66-7.56,7.27a2.26,2.26,0,0,0-.55,2.58c.39.86.75,1.74,1.1,2.63a2.21,2.21,0,0,0,3.33,1c2.73-2,3.25-3.82,7.87-6,6.05-2.92,7-.87,13.08-3.79s5.05-5,11.08-7.88,7-.86,13.06-3.77a21.79,21.79,0,0,0,4-2.41,2.22,2.22,0,0,0,.56-2.83c-1.65-2.9-3.42-5.74-5.31-8.49a2.21,2.21,0,0,0-3.42-.25,23.08,23.08,0,0,1-2.54,2.24c-5.26,4-6.89,1.75-12.46,5.36S287.33,62.06,281.77,65.66Z"/><path class="cls-1" d="M271.81,52.51c-4.55,4.49-6.15,2.86-10.7,7.35-3.68,3.62-3.47,5.27-5.56,8.23a2.22,2.22,0,0,0,0,2.57c.54.76,1.06,1.54,1.57,2.32a2.19,2.19,0,0,0,3.48.29c2-2.3,2.2-4.18,6-7.1,5.12-3.94,6.51-2.14,11.64-6.08s3.73-5.75,8.86-9.68,6.5-2.13,11.62-6.07a21.35,21.35,0,0,0,3.14-2.87,2.23,2.23,0,0,0,0-2.9q-3.1-3.59-6.52-6.91a2.2,2.2,0,0,0-3.38.39,21.62,21.62,0,0,1-1.84,2.44c-4.17,4.86-6.22,2.94-10.78,7.43S276.36,48,271.81,52.51Z"/><path class="cls-1" d="M259.59,41.78c-3.43,5.11-5.33,3.84-8.76,8.95-2.68,4-2.21,5.63-3.47,8.61a2.25,2.25,0,0,0,.54,2.5c.32.29.63.59.93.88a2.24,2.24,0,0,0,2.94.18c2.55-1.92,4.16-2,7.3-5.68,4.07-4.72,2.34-6.21,6.42-10.93s5.79-3.23,9.85-7.94,2.34-6.2,6.4-10.92a15.23,15.23,0,0,1,2.13-2.05,2.21,2.21,0,0,0-.06-3.49c-1.93-1.44-3.92-2.83-5.95-4.15a2.21,2.21,0,0,0-3.25,1,22.55,22.55,0,0,1-1.23,2.49c-3.05,5.36-5.38,3.92-8.82,9S263,36.67,259.59,41.78Z"/><path class="cls-1" d="M239,43.88c-1.73,4.18-1.12,5.6-1.58,8.52a2.23,2.23,0,0,0,1,2.28l1.25.77a2.26,2.26,0,0,0,2.88-.39c1.95-2.1,3.46-2.61,5.64-6.52,2.93-5.24.94-6.35,3.87-11.59S257,32.83,260,27.59s.94-6.34,3.86-11.57a14.26,14.26,0,0,1,1.54-2.25,2.2,2.2,0,0,0-.75-3.4c-2-1-4.07-1.86-6.17-2.71a2.22,2.22,0,0,0-3,1.65,19,19,0,0,1-.66,2.48c-1.85,5.65-4.41,4.7-6.68,10.18s-.17,6.36-2.44,11.83S241.28,38.41,239,43.88Z"/><path class="cls-1" d="M226.35,39.55c-.79,4.15.15,5.5.3,8.2a2.25,2.25,0,0,0,1.53,2c.52.17,1.62.61,2.3.89a.68.68,0,0,0,.83-.31c1.67-3.11,3.2-3.51,4.67-8.09,1.78-5.5-.39-6.2,1.39-11.7s3.94-4.79,5.71-10.29-.4-6.19,1.38-11.68a11.94,11.94,0,0,1,1.6-3.32,1.29,1.29,0,0,0-.72-2c-.69-.2-1.39-.39-2.09-.56q-2.75-.69-5.5-1.19a2.23,2.23,0,0,0-2.65,2.22A19.19,19.19,0,0,1,235,6.21c-.62,5.68-3.32,5.28-4.38,10.9s1.18,6,.11,11.65S227.41,33.94,226.35,39.55Z"/><path class="cls-1" d="M215.49,27.22c.33,5.48-1.94,5.62-1.61,11.1.25,4.16,1.51,5.08,2.33,7.66a2.26,2.26,0,0,0,1.93,1.58c.51,0,1,.1,1.53.17a2.21,2.21,0,0,0,2.41-2.84,14,14,0,0,1-1-6.43c.46-5.55,2.73-5.36,3.19-10.9s-1.82-5.73-1.36-11.26,2.73-5.35,3.18-10.88a15.29,15.29,0,0,0-.05-3.53A2.21,2.21,0,0,0,223.94,0q-4.19-.11-8.31.17a2.22,2.22,0,0,0-1.93,2.86,18.22,18.22,0,0,1,.45,2.09c.85,5.44-1.93,5.74-1.6,11.23S215.16,21.73,215.49,27.22Z"/><path class="cls-1" d="M194.19,9.25c2.08,4.87-.54,5.84,1.05,10.89s3.76,4.36,5.34,9.4-.59,5.73,1,10.77c1.19,3.78,2.6,4.35,4,6.5a2.23,2.23,0,0,0,2.21,1c.5-.07,1-.14,1.5-.19a2.22,2.22,0,0,0,1.63-3.38,12.77,12.77,0,0,1-2.42-5.65c-.88-5.27,1.36-5.65.48-10.93s-3.13-4.89-4-10.16,1.36-5.64.48-10.91a15.41,15.41,0,0,0-.8-3,2.26,2.26,0,0,0-2.57-1.38q-3.83.87-7.55,2.07a2.22,2.22,0,0,0-1.17,3.25A17.94,17.94,0,0,1,194.19,9.25Z"/><path class="cls-1" d="M176.22,17.66c3.05,4.07.74,5.63,3.37,10s4.58,3.17,7.2,7.53.68,5.52,3.3,9.88c1.93,3.19,3.4,3.45,5.15,5a2.22,2.22,0,0,0,2.33.42L198.9,50a2.21,2.21,0,0,0,.78-3.71,11.2,11.2,0,0,1-3.35-4.43c-2.05-4.72,0-5.63-2-10.35s-4.13-3.8-6.18-8.51,0-5.62-2-10.33a13.37,13.37,0,0,0-1.48-2.65,2.22,2.22,0,0,0-2.77-.65c-2.17,1.09-4.28,2.26-6.35,3.52a2.21,2.21,0,0,0-.47,3.37A16.46,16.46,0,0,1,176.22,17.66Z"/><path class="cls-1" d="M166.48,38.49c3.43,3.49,5.06,1.89,8.48,5.38s1.8,5.07,5.22,8.55c2.42,2.47,3.87,2.46,5.78,3.43a2.23,2.23,0,0,0,2.32-.19c.38-.27.76-.54,1.15-.8a2.21,2.21,0,0,0-.24-3.78,9.89,9.89,0,0,1-3.87-3.18c-3-3.94-1.16-5.32-4.14-9.26s-4.8-2.56-7.78-6.5-1.15-5.31-4.13-9.25a12.88,12.88,0,0,0-2-2.1,2.19,2.19,0,0,0-2.79,0c-1.92,1.61-3.78,3.32-5.56,5.09a1.67,1.67,0,0,0,.3,2.62,12.71,12.71,0,0,1,1.89,1.32C164.93,33,163.05,35,166.48,38.49Z"/><path class="cls-1" d="M148,44.09a14.27,14.27,0,0,1,1.5.64c4.22,2.07,2.87,4.49,6.85,7s5.18.58,9.15,3.08,2.76,4.43,6.73,6.93c2.71,1.71,4.09,1.43,6,1.83a2.26,2.26,0,0,0,2.17-.73l.78-.86a2.21,2.21,0,0,0-1.09-3.67,9.12,9.12,0,0,1-3.92-2c-3.66-3-2.22-4.77-5.89-7.79s-5.11-1.26-8.77-4.27-2.21-4.77-5.86-7.77a11.12,11.12,0,0,0-2.43-1.58,2.21,2.21,0,0,0-2.67.7c-1.28,1.7-2.49,3.45-3.65,5.24A2.2,2.2,0,0,0,148,44.09Z"/><path class="cls-1" d="M140.09,61.2a14.1,14.1,0,0,1,1.68.27c4.4,1,3.63,3.67,7.9,5.16s5-.67,9.26.81,3.51,3.63,7.76,5.11c2.75,1,4,.48,5.71.37a2.5,2.5,0,0,0,2.07-1.32l.48-.92a2.2,2.2,0,0,0-1.9-3.23,8.25,8.25,0,0,1-3.87-1c-4.09-2-3.09-4-7.18-6.06s-5.09,0-9.18-2-3.08-4-7.16-6.06a10.32,10.32,0,0,0-2.71-.94,2.3,2.3,0,0,0-2.5,1.34q-1.19,2.67-2.19,5.44A2.2,2.2,0,0,0,140.09,61.2Z"/><path class="cls-1" d="M136.38,79.92a10.74,10.74,0,0,1,1.76-.18c4.33-.12,4.27,2.59,8.59,2.91s4.48-2,8.8-1.65,4.14,2.59,8.45,2.9c2.79.21,3.83-.56,5.39-1.11a2.32,2.32,0,0,0,1.48-1.65l.09-.4a2.25,2.25,0,0,0-.79-2.32c-1.32-1-2.12-2-4.85-2.63-4.26-1-4.77,1.25-9,.28s-3.76-3.19-8-4.16-4.77,1.26-9,.29a8.23,8.23,0,0,1-1.68-.57,2.26,2.26,0,0,0-3.25,1.61c-.24,1.43-.44,2.86-.59,4.29A2.22,2.22,0,0,0,136.38,79.92Z"/><path class="cls-1" d="M148.34,98.47c4-.87,3.57-3.1,7.63-4s4.53,1.36,8.59.48c2.72-.58,3.42-1.7,4.79-2.69a1.59,1.59,0,0,0,.67-1.41c-.05-.7,0-1.39-.13-2.15a1.32,1.32,0,0,0-2-1,7.75,7.75,0,0,1-4.22,1.5c-4.19.27-4.34-2-8.52-1.73s-4,2.54-8.21,2.81-4.33-2-8.51-1.74a8,8,0,0,0-3.36.87,2.19,2.19,0,0,0-1.15,2.18c.2,1.84.47,3.67.81,5.47A2.26,2.26,0,0,0,138,98.7,12.23,12.23,0,0,1,139.6,98C143.54,96.68,144.27,99.34,148.34,98.47Z"/><path class="cls-1" d="M141.9,116.85a1,1,0,0,0,1.73.09,8.48,8.48,0,0,1,2.28-2.24c3.26-2.29,4.7.07,8.22-1.8s2.45-3.88,6-5.75,4.57.15,8.08-1.72a8.07,8.07,0,0,0,3.41-3.44,1.85,1.85,0,0,0,.24-1.63c-.19-.55-.38-1.12-.55-1.65a1.44,1.44,0,0,0-2.44-.52,6.71,6.71,0,0,1-3.08,2.11c-3.78,1.38-4.56-.77-8.34.61s-3,3.51-6.78,4.88-4.54-.78-8.31.59a7.41,7.41,0,0,0-3.48,2.41,1.13,1.13,0,0,0-.21,1.18A69.8,69.8,0,0,0,141.9,116.85Z"/><path class="cls-1" d="M152.25,131a1.66,1.66,0,0,0,2.71-.45,9,9,0,0,1,1.21-1.92c2.42-3,4.44-1.08,7.21-3.7s1.2-4.28,4-6.91,4.33-1,7.09-3.58a7,7,0,0,0,2.12-3.75,1.62,1.62,0,0,0-.23-1.4l-.85-1.23a1.64,1.64,0,0,0-2.77.19,6.25,6.25,0,0,1-1.86,2c-3.13,2.25-4.46.4-7.59,2.65s-1.79,4.1-4.92,6.35-4.44.39-7.56,2.64a6.73,6.73,0,0,0-2.49,3,1.68,1.68,0,0,0,.2,1.75Q150.26,128.94,152.25,131Z"/><path class="cls-1" d="M166.81,142.7a1.29,1.29,0,0,0,1.95-1,7.27,7.27,0,0,1,.66-2.54c1.47-3.35,3.91-2.08,5.8-5.21s-.06-4.3,1.83-7.43,3.83-1.94,5.72-5a6,6,0,0,0,.95-3.57,1.79,1.79,0,0,0-.68-1.4l-1.49-1.21a1.23,1.23,0,0,0-2,.72,5.93,5.93,0,0,1-1.21,2.42c-2.31,2.88-4.09,1.45-6.4,4.33s-.52,4.3-2.82,7.18-4.08,1.45-6.37,4.31a6.65,6.65,0,0,0-1.55,3.93,1.25,1.25,0,0,0,.51,1.23C163.36,140.59,165.06,141.67,166.81,142.7Z"/><path class="cls-1" d="M192.62,125.91a5.59,5.59,0,0,0,.16-2.87,2.24,2.24,0,0,0-1.36-1.6h0c-.57-.23-1.13-.48-1.68-.74a2.24,2.24,0,0,0-2.35.22,5.56,5.56,0,0,0-1.79,2.39c-1.39,3.24.7,4.14-.7,7.39s-3.49,2.33-4.88,5.57.7,4.13-.69,7.36a5.36,5.36,0,0,1-.81,1.35,2.32,2.32,0,0,0,1,3.66c.7.25,1.4.49,2.11.72a2.18,2.18,0,0,0,2.85-2.21,6.78,6.78,0,0,1,.06-1.59c.48-3.47,3.2-2.89,4.17-6.25s-1.21-4-.24-7.34S191.64,129.25,192.62,125.91Z"/><path class="cls-1" d="M200.51,134.07c-.12-3.33,2.15-3.41,2-6.74a5.16,5.16,0,0,0-1.12-3.18,2,2,0,0,0-1.49-.84l-1.17-.08a2.28,2.28,0,0,0-1.95.84,5.12,5.12,0,0,0-1.2,2.89c-.4,3.36,1.87,3.62,1.47,7s-2.67,3.07-3.06,6.42,1.86,3.61,1.46,6.95a4.88,4.88,0,0,1-1.17,2.75,1.11,1.11,0,0,0,.8,1.8,51.48,51.48,0,0,0,6.21,0,1,1,0,0,0,.8-1.61,6.67,6.67,0,0,1-1.1-2.65c-.63-3.28,2.14-3.6,2-6.94S200.63,137.41,200.51,134.07Z"/><path class="cls-1" d="M209.76,146.18a5.14,5.14,0,0,0,1.83,3,2,2,0,0,0,2,.48c1.09-.33,2.16-.69,3.23-1.09a2,2,0,0,0,.87-3.17,7,7,0,0,1-.76-1.1c-1.55-2.8.93-3.95-.2-6.94s-3.27-2.18-4.4-5.17,1-3.78-.13-6.76a5,5,0,0,0-2.29-2.7,2.11,2.11,0,0,0-1.77-.33l-1,.24a1.08,1.08,0,0,0-.5,1.82,4.57,4.57,0,0,1,1.22,2.33c.68,3.16-1.54,3.64-.86,6.79s2.92,2.66,3.6,5.81S209.08,143,209.76,146.18Z"/><path class="cls-1" d="M224.77,140.21a4.46,4.46,0,0,0,1.66,1.69,2.88,2.88,0,0,0,3.11-.24c1.22-.89,2.41-1.83,3.55-2.82a.69.69,0,0,0-.25-1.18,5.59,5.59,0,0,1-2.24-1.3c-2.25-2.06-.26-3.93-2.19-6.31s-3.69-.93-5.6-3.3-.14-3.8-2.06-6.17a5,5,0,0,0-3.18-1.79,2.55,2.55,0,0,0-2.1.33l-.78.48a.91.91,0,0,0,.12,1.62,4.46,4.46,0,0,1,2.43,2c1.59,2.64-.37,3.81,1.22,6.46s3.53,1.46,5.11,4.1S223.19,137.57,224.77,140.21Z"/><path class="cls-1" d="M240.38,131a51.88,51.88,0,0,0,3.2-4.75.51.51,0,0,0-.44-.76,5.1,5.1,0,0,1-2.32-.46c-2.67-1.18-1.35-3.6-3.79-5.2s-3.69.32-6.12-1.28-1.18-3.49-3.61-5.09c-1.73-1.12-2.79-.72-4.15-.66a1.67,1.67,0,0,0-1.29.56l0,0a1.53,1.53,0,0,0-.24,1.46c.43,1.26.24,2.42,1.78,3.75,2.22,1.93,3.71.21,5.94,2.14s.72,3.64,2.94,5.57,3.71.2,5.92,2.12a3.93,3.93,0,0,1,1.33,2.36A.5.5,0,0,0,240.38,131Z"/><path class="cls-1" d="M230.09,108.49c2.59,1.09,1.7,3.19,4.28,4.28s3.47-1,6,.07,1.69,3.18,4.26,4.27a3.89,3.89,0,0,0,2,.32,2,2,0,0,0,1.67-1.36c.45-1.34.86-2.71,1.21-4.11.09-.37.28-.88,0-1-.55-.25-1.28.54-2.58.39-2.76-.31-2.24-3-4.92-3.73s-3.29,1.45-6,.7-2-2.94-4.72-3.69a4.4,4.4,0,0,0-3.31.43,2.64,2.64,0,0,0-1.33,1.16,19.07,19.07,0,0,1-1,1.65c-.26.39-.09,1,.54.8C227.41,108.38,228.43,107.79,230.09,108.49Z"/><path class="cls-1" d="M232.36,99.42c2.67.14,2.54,2.41,5.21,2.56s2.78-2.14,5.44-2,2.54,2.41,5.19,2.56a3.41,3.41,0,0,0,2.21-.58.71.71,0,0,0,.31-.58,41.85,41.85,0,0,0-.34-4.9.66.66,0,0,0-1-.49,4.75,4.75,0,0,1-1.08.44c-2.55.71-3-2-5.69-1.69s-2.4,2.54-5,2.81-2.86-2-5.49-1.72a3.75,3.75,0,0,0-2.54,1.38,2,2,0,0,0-.54,1.23c0,.32-.05.64-.09,1a.72.72,0,0,0,1.14.67A3.44,3.44,0,0,1,232.36,99.42Z"/><path class="cls-1" d="M231.06,90.62c2.4-.83,3.14,1.33,5.55.5s1.65-3,4-3.81,3.13,1.33,5.52.5a3.3,3.3,0,0,0,1-.55,1,1,0,0,0,.28-1.17c-.49-1.16-1-2.31-1.61-3.42a1,1,0,0,0-1.55-.29l-.13.11c-2,1.53-3.46-.76-5.71.4s-1.19,3.19-3.42,4.35-3.29-.87-5.52.29a3,3,0,0,0-1.5,1.59,2,2,0,0,0,0,1.43,18.44,18.44,0,0,1,.54,1.79.29.29,0,0,0,.53.08A3.37,3.37,0,0,1,231.06,90.62Z"/><path class="cls-1" d="M226.62,83c1.84-1.57,3.32.17,5.16-1.4s.36-3.3,2.2-4.87,3.31.17,5.15-1.39q.18-.16.33-.33a1,1,0,0,0,0-1.21c-1.07-1.56-2.55-3.3-3.11-3.3s-.52.61-.68.87c-1.26,2-3.43.44-5,2.24s.11,3.3-1.49,5.09-3.29.27-4.89,2.06a2.84,2.84,0,0,0-.75,2.07,1.18,1.18,0,0,0,.33.81c.37.39.72.8,1,1.22a.43.43,0,0,0,.77-.17A2.81,2.81,0,0,1,226.62,83Z"/><path class="cls-1" d="M219.78,77.51c1.1-2,3.1-.93,4.2-3s-.9-3.1.19-5.12,3.1-.92,4.19-2.93a2.9,2.9,0,0,0,.29-.78,38.48,38.48,0,0,0-4.58-2.05,3.16,3.16,0,0,1,0,.51c-.41,2.25-3,1.52-3.83,3.65s1.3,3,.48,5.07-3,1.3-3.77,3.42a3.15,3.15,0,0,0,.32,2.73,18.78,18.78,0,0,1,2.52,1.31A3.44,3.44,0,0,1,219.78,77.51Z"/><path class="cls-1" d="M211.71,74.94c.25-2.17,2.51-1.91,2.76-4.08s-2-2.42-1.78-4.58,2.51-1.91,2.75-4.07a4.7,4.7,0,0,0,0-.6,31.29,31.29,0,0,0-4.83-.16,1.31,1.31,0,0,1,.1.27c.52,2.1-2.15,2.48-2.06,4.65s2.37,2.07,2.47,4.23S208.92,72.85,209,75c.06,1.41,1,1.87,1.71,2.6a18.67,18.67,0,0,1,2.37.26C212.51,77,211.55,76.38,211.71,74.94Z"/><path class="cls-1" d="M203.9,76c-.69-2,1.46-2.71.76-4.66s-2.83-1.18-3.52-3.13,1.46-2.7.77-4.64a2.12,2.12,0,0,0-.19-.37,30.22,30.22,0,0,0-4,1.74.76.76,0,0,1,.09.09c1.31,1.59-.93,3.07,0,4.9s3,.76,3.92,2.57-1.06,2.88-.11,4.69a2.71,2.71,0,0,0,2,1.35,20,20,0,0,1,2.59-.65C205.39,77.43,204.34,77.25,203.9,76Z"/><path class="cls-1" d="M197.34,80.33c-1.37-1.39.25-3-1.12-4.39s-3,.21-4.37-1.19.26-3-1.11-4.38a3,3,0,0,0-.32-.24,32.63,32.63,0,0,0-2.71,2.92l.15,0c1.76.85.34,3.13,1.88,4.33s2.93-.61,4.47.59.13,3,1.66,4.18a1.88,1.88,0,0,0,.89.39,19.33,19.33,0,0,1,2.06-1.65A2.05,2.05,0,0,1,197.34,80.33Z"/><path class="cls-1" d="M190.59,83.47c-1.73-.66-2.54,1.47-4.27.81s-.92-2.79-2.64-3.44a2.11,2.11,0,0,0-.57-.13,30.78,30.78,0,0,0-1.22,3.46,2.46,2.46,0,0,1,.4,0c1.84.05,1.48,2.69,3.27,3.14s2.34-1.76,4.13-1.31c1.57.4,1.33,2.16,2.47,2.88a19,19,0,0,1,1-1.94C191.53,86.22,192.3,84.12,190.59,83.47Z"/><polygon class="cls-2" points="487.01 61.5 487.01 23.2 357.96 23.2 357.96 58.67 404.5 64.19 404.5 61.5 487.01 61.5"/><polygon class="cls-2" points="369.62 196.19 416.16 196.19 416.16 136.12 488.79 136.12 488.79 97.82 416.16 97.82 416.16 61.97 369.62 56.45 369.62 196.19"/><path class="cls-2" d="M623.23,31.46Q602.42,19.7,576.34,19.7t-46.9,11.76A85.39,85.39,0,0,0,496.77,64a86.67,86.67,0,0,0-5.12,10.53l48.68,5.77A42.85,42.85,0,0,1,553.77,67a43.86,43.86,0,0,1,45.13,0,44,44,0,0,1,16,17.65A49.27,49.27,0,0,1,617,89.39l49.63,5.89A89.25,89.25,0,0,0,655.91,64,85.48,85.48,0,0,0,623.23,31.46Z"/><path class="cls-2" d="M632.42,108.59q0,14.76-5.88,26.15a43.82,43.82,0,0,1-16,17.65,43.8,43.8,0,0,1-45.13,0,43.85,43.85,0,0,1-16-17.65q-5.88-11.39-5.87-26.15t5.87-26.16c.79-1.53,1.65-3,2.55-4.35l-48.68-5.77a95.62,95.62,0,0,0-6.76,36.28q0,26,11.87,46.8a85.35,85.35,0,0,0,32.68,32.54q20.8,11.77,46.89,11.77t46.9-11.77a85.32,85.32,0,0,0,32.67-32.54q11.87-20.77,11.87-46.8a104.72,104.72,0,0,0-1.13-15.53l-49.63-5.89A58.59,58.59,0,0,1,632.42,108.59Z"/><path class="cls-2" d="M690,103.33A52.11,52.11,0,0,0,711.4,119a222.77,222.77,0,0,0,31,9.14q16.92,4,24.56,7.63t7.64,11.14q0,14.26-26.79,14.27a92.07,92.07,0,0,1-28.68-4.76,95.78,95.78,0,0,1-25.62-12.51l-15.28,36.54q11.75,8.76,30.55,14a143.62,143.62,0,0,0,38.79,5.26q23.5,0,40-7.64t24.68-20.4a51.51,51.51,0,0,0,8.23-28.53q0-18.27-9.05-28.91a57.45,57.45,0,0,0-6-6.09l-121-14.35A35.18,35.18,0,0,0,690,103.33Z"/><path class="cls-2" d="M747.23,91.78Q730.54,88,723,84.53T715.49,74q0-7,6.35-11.39t20.22-4.38q22.08,0,45.6,13.52L802,35a94.65,94.65,0,0,0-27.74-11.38,133,133,0,0,0-32-3.88q-23.74,0-40.08,7.51t-24.56,20.4a52.55,52.55,0,0,0-8.23,28.91A52.39,52.39,0,0,0,672.75,96l121,14.35a52.58,52.58,0,0,0-15.42-9.43A216.86,216.86,0,0,0,747.23,91.78Z"/><path class="cls-2" d="M849.38,119a223.18,223.18,0,0,0,31,9.14q16.92,4,24.56,7.63t7.64,11.14q0,14.26-26.79,14.27a92.07,92.07,0,0,1-28.68-4.76,95.78,95.78,0,0,1-25.62-12.51l-15.28,36.54q11.75,8.76,30.56,14a143.49,143.49,0,0,0,38.78,5.26q23.5,0,40-7.64t24.68-20.4a51.51,51.51,0,0,0,8.23-28.53A53.92,53.92,0,0,0,955.92,126L836.78,111.85A51.16,51.16,0,0,0,849.38,119Z"/><path class="cls-2" d="M916.35,100.92a216.86,216.86,0,0,0-31.14-9.14Q868.52,88,861,84.53T853.48,74q0-7,6.34-11.39T880,58.24q22.1,0,45.6,13.52L940,35a94.65,94.65,0,0,0-27.74-11.38,133,133,0,0,0-32-3.88q-23.74,0-40.08,7.51t-24.56,20.4a52.55,52.55,0,0,0-8.23,28.91q0,18.27,8.93,29a55.14,55.14,0,0,0,8.79,8.52L944.27,128.2a35.43,35.43,0,0,0-6.52-11.76A53.82,53.82,0,0,0,916.35,100.92Z"/><polygon class="cls-2" points="965.74 196.19 1012.28 196.19 1012.28 132.66 965.74 127.14 965.74 196.19"/><polygon class="cls-2" points="954.08 23.2 954.08 129.36 1000.62 134.88 1000.62 23.2 954.08 23.2"/><polygon class="cls-2" points="1077.86 140.43 1031.32 134.91 1031.32 196.19 1156.37 196.19 1156.37 156.89 1077.86 156.89 1077.86 140.43"/><polygon class="cls-2" points="1066.2 23.2 1019.66 23.2 1019.66 137.14 1066.2 142.65 1066.2 23.2"/><path class="cls-1" d="M395.9,268.9H374.6l-4,9.78H356.11l22.23-50.36h14l22.31,50.36H399.86Zm-4.17-10.51-6.48-16.11-6.47,16.11Z"/><path class="cls-1" d="M455.4,230.59a17.76,17.76,0,0,1,0,32.66,28.7,28.7,0,0,1-11.87,2.27h-8.78v13.16H420.51V228.32h23A28.54,28.54,0,0,1,455.4,230.59Zm-6.11,21.8a6.78,6.78,0,0,0,2.23-5.44,6.88,6.88,0,0,0-2.23-5.46q-2.24-2-6.62-2h-7.92v14.75h7.92Q447.05,254.29,449.29,252.39Z"/><path class="cls-1" d="M474.61,228.32h14.25v50.36H474.61Z"/></g></g></svg>