<svg width="60" height="60" viewBox="0 0 60 60" fill="none" xmlns="http://www.w3.org/2000/svg">
<circle cx="30" cy="30" r="29.5" fill="#F3E7A9" stroke="black"/>
<path d="M29.103 41.36C27.643 41.36 26.193 41.17 24.753 40.79C23.313 40.39 22.093 39.83 21.093 39.11L22.983 35.39C23.783 35.97 24.713 36.43 25.773 36.77C26.833 37.11 27.903 37.28 28.983 37.28C30.203 37.28 31.163 37.04 31.863 36.56C32.563 36.08 32.913 35.42 32.913 34.58C32.913 33.78 32.603 33.15 31.983 32.69C31.363 32.23 30.363 32 28.983 32H26.763V28.79L32.613 22.16L33.153 23.9H22.143V20H36.843V23.15L31.023 29.78L28.563 28.37H29.973C32.553 28.37 34.503 28.95 35.823 30.11C37.143 31.27 37.803 32.76 37.803 34.58C37.803 35.76 37.493 36.87 36.873 37.91C36.253 38.93 35.303 39.76 34.023 40.4C32.743 41.04 31.103 41.36 29.103 41.36Z" fill="black"/>
</svg>
