<svg width="60" height="60" viewBox="0 0 60 60" fill="none" xmlns="http://www.w3.org/2000/svg">
<circle cx="30" cy="30" r="29.5" fill="#F3E7A9" stroke="black"/>
<path d="M22.1423 41V37.85L30.2423 30.2C30.8823 29.62 31.3523 29.1 31.6523 28.64C31.9523 28.18 32.1523 27.76 32.2523 27.38C32.3723 27 32.4323 26.65 32.4323 26.33C32.4323 25.49 32.1423 24.85 31.5623 24.41C31.0023 23.95 30.1723 23.72 29.0723 23.72C28.1923 23.72 27.3723 23.89 26.6123 24.23C25.8723 24.57 25.2423 25.1 24.7223 25.82L21.1823 23.54C21.9823 22.34 23.1023 21.39 24.5423 20.69C25.9823 19.99 27.6423 19.64 29.5223 19.64C31.0823 19.64 32.4423 19.9 33.6023 20.42C34.7823 20.92 35.6923 21.63 36.3323 22.55C36.9923 23.47 37.3223 24.57 37.3223 25.85C37.3223 26.53 37.2323 27.21 37.0523 27.89C36.8923 28.55 36.5523 29.25 36.0323 29.99C35.5323 30.73 34.7923 31.56 33.8123 32.48L27.0923 38.81L26.1623 37.04H38.0123V41H22.1423Z" fill="black"/>
</svg>
