<svg width="100" height="56" viewBox="0 0 100 56" fill="none" xmlns="http://www.w3.org/2000/svg">
<path d="M56.4062 28.125C56.4062 43.6563 43.7813 56.25 28.2 56.25C24.5016 56.255 20.8385 55.5314 17.4198 54.1206C14.0011 52.7099 10.8937 50.6396 8.27512 48.028C5.6565 45.4163 3.57793 42.3145 2.15809 38.8995C0.73824 35.4846 0.00492129 31.8234 0 28.125C0 12.5875 12.625 3.40243e-05 28.2 3.40243e-05C31.8989 -0.00571541 35.5627 0.717244 38.9821 2.12762C42.4015 3.538 45.5097 5.60817 48.1289 8.2199C50.7482 10.8316 52.8273 13.9338 54.2476 17.3491C55.6678 20.7645 56.4013 24.4262 56.4062 28.125ZM87.3438 28.125C87.3438 42.75 81.0313 54.6 73.2438 54.6C65.4563 54.6 59.1438 42.7438 59.1438 28.125C59.1438 13.5 65.4563 1.65003 73.2438 1.65003C81.0313 1.65003 87.3438 13.5063 87.3438 28.125ZM100 28.125C100 41.225 97.7812 51.8438 95.0375 51.8438C92.3 51.8438 90.0813 41.2188 90.0813 28.125C90.0813 15.025 92.3 4.40628 95.0437 4.40628C97.7812 4.40628 100 15.025 100 28.125Z" fill="white"/>
</svg>
