<svg width="255" height="46" viewBox="0 0 255 46" fill="none" xmlns="http://www.w3.org/2000/svg">
<g clip-path="url(#clip0_38_23)">
<g clip-path="url(#clip1_38_23)">
<path d="M185.482 27.7334V27.6001H206.046V17.8667H185.482V10.4001H206.576V0.800049H174.073V26.1334L185.482 27.7334Z" fill="#F3E7A9"/>
<path d="M224.619 32.9334V30.2667H230.456L232.314 34L245.713 35.7334L241.998 28.9334C246.111 27.4667 250.887 23.3334 250.887 15.6C250.887 7.33338 245.315 0.800049 235.498 0.800049H213.342V31.4667L224.619 32.9334ZM224.619 10.4H233.64C236.692 10.4 239.212 12.4 239.212 15.4667C239.212 18.5334 236.692 20.5334 233.64 20.5334H224.619V10.4V10.4Z" fill="#F3E7A9"/>
<path d="M150.458 23.0667V0.800049H138.916V21.4667L150.458 23.0667Z" fill="#F3E7A9"/>
<path d="M130.956 20.4001V0.800049H119.546V18.9334L130.956 20.4001Z" fill="#F3E7A9"/>
<path d="M81.3381 13.8667C83.4608 11.6 86.5121 10.1333 90.0942 10.1333C95.0029 10.1333 98.5849 12.6667 100.575 16.4L113.178 18.1333C111.188 7.2 102.034 0 90.2268 0C80.6748 0 72.8474 4.66667 69 12.2667L81.3381 13.8667Z" fill="#F3E7A9"/>
<path d="M123.659 18.9333V45.2H135.069V20.4L123.659 18.9333Z" fill="#F3E7A9"/>
<path d="M104.687 16.3999C105.616 18.2666 106.147 20.5333 106.147 22.9333C106.147 30.1333 101.371 35.8666 94.0741 35.8666C86.6447 35.8666 82.0013 30.1333 82.0013 22.9333C82.0013 19.3333 83.1953 16.1333 85.318 13.7333L72.9799 12.2666C71.3879 15.4666 70.4592 19.0666 70.4592 23.0666C70.4592 36.6666 80.6746 46.1333 94.2067 46.1333C107.739 46.1333 117.822 36.6666 117.822 23.0666C117.822 21.3333 117.689 19.7333 117.291 18.1333L104.687 16.3999Z" fill="#F3E7A9"/>
<path d="M154.438 23.0666L143.029 21.4666V45.1999H172.215V35.1999H154.438V23.0666Z" fill="#F3E7A9"/>
<path d="M236.294 33.8667L241.866 45.2H255L249.693 35.7334L236.294 33.8667Z" fill="#F3E7A9"/>
<path d="M217.19 31.3333V45.1999H228.599V32.9333L217.19 31.3333Z" fill="#F3E7A9"/>
<path d="M189.462 27.7333L178.053 26.1333V45.2H210.556V35.6H189.462V27.7333Z" fill="#F3E7A9"/>
</g>
<g filter="url(#filter0_d_38_23)">
<path d="M30.44 42V28H36.28C37.7867 28 38.9667 28.3067 39.82 28.92C40.6733 29.5333 41.1 30.42 41.1 31.58C41.1 32.34 40.92 32.98 40.56 33.5C40.2 34.02 39.7 34.4133 39.06 34.68C38.4333 34.9333 37.7267 35.06 36.94 35.06L37.3 34.66C38.26 34.66 39.08 34.8 39.76 35.08C40.44 35.36 40.9533 35.7667 41.3 36.3C41.66 36.8333 41.84 37.5 41.84 38.3C41.84 39.4733 41.4133 40.3867 40.56 41.04C39.7067 41.68 38.4133 42 36.68 42H30.44ZM31.46 41.12H36.68C38.0267 41.12 39.0533 40.8933 39.76 40.44C40.4667 39.9733 40.82 39.2333 40.82 38.22C40.82 37.22 40.4667 36.4933 39.76 36.04C39.0533 35.5733 38.0267 35.34 36.68 35.34H31.34V34.46H36.24C37.4533 34.46 38.3933 34.2267 39.06 33.76C39.7267 33.2933 40.06 32.5933 40.06 31.66C40.06 30.74 39.7267 30.0467 39.06 29.58C38.3933 29.1133 37.4533 28.88 36.24 28.88H31.46V41.12ZM51.4861 42V36.92L51.7261 37.58L45.8461 28H46.9661L52.3061 36.7H51.7461L57.0861 28H58.1461L52.2661 37.58L52.5061 36.92V42H51.4861Z" fill="#F3E7A9"/>
</g>
<line y1="34.5" x2="19" y2="34.5" stroke="url(#paint0_linear_38_23)"/>
</g>
<defs>
<filter id="filter0_d_38_23" x="30.4399" y="28" width="27.7061" height="19" filterUnits="userSpaceOnUse" color-interpolation-filters="sRGB">
<feFlood flood-opacity="0" result="BackgroundImageFix"/>
<feColorMatrix in="SourceAlpha" type="matrix" values="0 0 0 0 0 0 0 0 0 0 0 0 0 0 0 0 0 0 127 0" result="hardAlpha"/>
<feOffset dy="5"/>
<feComposite in2="hardAlpha" operator="out"/>
<feColorMatrix type="matrix" values="0 0 0 0 0 0 0 0 0 0 0 0 0 0 0 0 0 0 0.25 0"/>
<feBlend mode="normal" in2="BackgroundImageFix" result="effect1_dropShadow_38_23"/>
<feBlend mode="normal" in="SourceGraphic" in2="effect1_dropShadow_38_23" result="shape"/>
</filter>
<linearGradient id="paint0_linear_38_23" x1="0" y1="35" x2="19" y2="35" gradientUnits="userSpaceOnUse">
<stop stop-color="#F3E7A9"/>
<stop offset="1" stop-color="#F3E7A9" stop-opacity="0"/>
</linearGradient>
<clipPath id="clip0_38_23">
<rect width="255" height="46" fill="white"/>
</clipPath>
<clipPath id="clip1_38_23">
<rect width="186" height="46" fill="white" transform="translate(69)"/>
</clipPath>
</defs>
</svg>
