<svg width="100" height="100" viewBox="0 0 100 100" fill="none" xmlns="http://www.w3.org/2000/svg">
<path d="M100 49.8014C100 63.0096 94.7322 75.6768 85.3553 85.0163C75.9785 94.3559 63.2608 99.6028 50 99.6028C36.7392 99.6028 24.0215 94.3559 14.6447 85.0163C5.26784 75.6768 0 63.0096 0 49.8014C0 36.5933 5.26784 23.9261 14.6447 14.5865C24.0215 5.24692 36.7392 0 50 0C63.2608 0 75.9785 5.24692 85.3553 14.5865C94.7322 23.9261 100 36.5933 100 49.8014ZM51.7937 36.7659C46.9312 38.7829 37.2062 42.9537 22.6313 49.2785C20.2688 50.2123 19.025 51.1336 18.9125 52.03C18.725 53.5427 20.6313 54.1404 23.225 54.9559L24.3188 55.2983C26.8687 56.1262 30.3062 57.0911 32.0875 57.1285C33.7125 57.1658 35.5187 56.5059 37.5125 55.1364C51.1312 45.9792 58.1625 41.3539 58.6 41.2542C58.9125 41.1796 59.35 41.0924 59.6375 41.3539C59.9312 41.6091 59.9 42.1009 59.8688 42.2316C59.6813 43.0346 52.2 49.957 48.3312 53.5427C47.125 54.6633 46.2687 55.4539 46.0938 55.6344C45.7084 56.0267 45.3167 56.4127 44.9187 56.7923C42.5437 59.0707 40.7687 60.7764 45.0125 63.5653C47.0563 64.9099 48.6938 66.0118 50.325 67.1199C52.1 68.3275 53.875 69.529 56.175 71.0355C56.7562 71.409 57.3188 71.8136 57.8625 72.1996C59.9313 73.6687 61.8 74.9885 64.0938 74.7768C65.4313 74.6523 66.8125 73.4073 67.5125 69.6722C69.1687 60.8511 72.425 41.746 73.175 33.8712C73.2208 33.2166 73.1935 32.5589 73.0938 31.9103C73.0349 31.3869 72.7806 30.9046 72.3812 30.5594C71.8126 30.1684 71.1346 29.9658 70.4437 29.9805C68.5687 30.0116 65.675 31.0138 51.7937 36.7659Z" fill="white"/>
</svg>
