<svg width="112" height="99" viewBox="0 0 112 99" fill="none" xmlns="http://www.w3.org/2000/svg">
<path d="M41.2136 86.9779C76.3095 86.9779 95.5082 57.464 95.5082 31.9144C95.5082 31.0885 95.5082 30.2508 95.4733 29.4249C99.2111 26.6787 102.437 23.2788 105 19.3844C101.509 20.9468 97.8085 21.9766 94.0202 22.4402C98.0107 20.0194 100.999 16.2104 102.431 11.7213C98.6817 13.9755 94.5783 15.558 90.3002 16.3994C87.4241 13.2906 83.6182 11.2312 79.472 10.54C75.3258 9.84886 71.0708 10.5646 67.366 12.5763C63.6612 14.588 60.7134 17.7835 58.9792 21.6678C57.245 25.552 56.8212 29.9082 57.7734 34.0617C50.1866 33.6756 42.7645 31.6753 35.9884 28.1904C29.2124 24.7056 23.2337 19.8141 18.4403 13.8332C16.0068 18.0989 15.2641 23.1446 16.3631 27.9458C17.4621 32.747 20.3203 36.9437 24.3574 39.6837C21.3322 39.5794 18.3735 38.7549 15.72 37.2768V37.5423C15.7252 42.0108 17.2505 46.3405 20.038 49.7995C22.8254 53.2584 26.7042 55.6345 31.0185 56.526C29.3809 56.9839 27.6893 57.2121 25.9907 57.2044C24.7932 57.2081 23.5981 57.0955 22.4218 56.8682C23.6412 60.7148 26.0155 64.078 29.2122 66.4867C32.409 68.8955 36.268 70.2291 40.2488 70.3007C33.4862 75.6915 25.1328 78.6152 16.5338 78.601C15.0186 78.6075 13.5044 78.5188 12 78.3355C20.7276 83.9826 30.8633 86.9811 41.2136 86.9779Z" fill="white"/>
</svg>
